<svg version="1.2" xmlns="http://www.w3.org/2000/svg" viewBox="0 0 128 128" width="128" height="128">
	<title>Icons</title>
	<style>
		.s0 { fill: #ffffff } 
	</style>
	<path id="Path 0" fill-rule="evenodd" class="s0" d="m36 40l9.25 0.02c5.09 0 9.73 0.34 10.33 0.75 0.59 0.4 1.94 2.2 4.92 7.25l18-0.02c13.23-0.03 18.34 0.3 19.27 1.23 0.92 0.93 1.26 5.98 1.26 18.77 0 12.39-0.35 17.86-1.21 18.75-0.93 0.95-8.96 1.25-33.27 1.27-24.55 0.01-32.35-0.28-33.32-1.25-0.93-0.93-1.25-6.04-1.19-37.27zm10.03 29.5c-0.72 4.4-1.03 8.79-0.67 9.75 0.37 1.03 1.66 1.75 3.13 1.75 1.56 0 3.45-1.13 5-3 1.38-1.65 2.5-3.45 2.5-4 0-0.58 3.34-1 8-1 7.91 0 8.03 0.04 10.21 3.25 1.21 1.79 2.67 3.58 3.25 3.98 0.57 0.41 2.06 0.75 3.29 0.75 1.24 0.01 2.54-0.54 2.89-1.23 0.36-0.69 0.08-4.85-0.61-9.25-0.69-4.4-1.88-9.01-2.64-10.25-0.76-1.24-2.4-2.52-3.64-2.85-1.23-0.32-3.71 0.13-5.5 1-1.78 0.88-5.16 1.59-7.5 1.57-2.33-0.02-5.15-0.7-6.25-1.52-1.1-0.82-2.8-1.48-3.79-1.47-0.99 0.01-2.82 1.03-4.07 2.27-1.67 1.64-2.64 4.42-3.6 10.25z"/>
</svg>