<svg version="1.2" xmlns="http://www.w3.org/2000/svg" viewBox="0 0 128 128" width="128" height="128">
	<title>Icons</title>
	<style>
		.s0 { fill: #ffffff } 
	</style>
	<g id="Icons.18">
		<path id="Path 0" class="s0" d="m31.17 41.75c-2.1 2.06-4.12 5.1-4.48 6.75-0.37 1.65-1.57 8.96-2.68 16.25-1.1 7.29-2.02 15.61-2.03 18.5-0.01 2.93 0.55 5.81 1.25 6.52 0.78 0.77 3.8 1.24 7.77 1.21 6.23-0.04 6.64-0.2 10-3.87 1.92-2.11 4.62-5.92 6-8.47l2.5-4.64h29c3.87 7.19 6.58 11 8.5 13.11 3.37 3.68 3.75 3.83 10.05 3.86 3.97 0.02 7.03-0.46 7.77-1.22 0.67-0.69 1.2-3.72 1.19-6.75-0.02-3.03-1.08-12.25-2.37-20.5-1.53-9.86-2.98-15.99-4.24-17.89-1.04-1.59-3.14-3.73-4.65-4.75-1.9-1.28-4.53-1.86-8.5-1.85-4.31 0.01-6.82 0.64-10 2.5-3.57 2.09-5.53 2.49-12.25 2.49-6.72 0-8.68-0.4-12.25-2.49-3.29-1.92-5.66-2.49-10.5-2.5-5.88-0.01-6.48 0.21-10.08 3.74z"/>
	</g>
</svg>