<svg version="1.2" xmlns="http://www.w3.org/2000/svg" viewBox="0 0 128 128" width="128" height="128">
	<title>Icons</title>
	<style>
		.s0 { fill: #ffffff } 
	</style>
	<path id="Path 0" fill-rule="evenodd" class="s0" d="m64.25 29.08c3.4-0.07 5.43 1.31 22 14.98 15.4 12.72 18.25 15.48 18.25 17.75 0 2.65-0.11 2.69-14.5 3.19v13c0 8.94-0.42 13.86-1.36 15.75-0.75 1.51-2.1 3.09-3 3.5-0.9 0.41-10.42 0.75-21.14 0.75-10.73 0-20.24-0.34-21.14-0.75-0.9-0.41-2.25-1.99-3-3.5-0.94-1.89-1.36-6.81-1.36-28.75l-7.25-0.25c-7.14-0.25-7.25-0.29-7.25-2.94 0-2.26 2.85-5.06 18-17.67 15.93-13.26 18.43-14.99 21.75-15.06zm-14.54 38.92c0.55 0.83 1.81 1.5 2.79 1.5 0.98 0 2.24-0.67 2.79-1.5 0.56-0.83 0.72-2.29 0.36-3.25-0.38-1.03-1.68-1.75-3.17-1.75-1.5 0-2.78 0.71-3.16 1.75-0.34 0.96-0.17 2.42 0.39 3.25zm24 0c0.55 0.83 1.81 1.5 2.79 1.5 0.98 0 2.24-0.67 2.79-1.5 0.56-0.83 0.72-2.29 0.36-3.25-0.38-1.03-1.68-1.75-3.17-1.75-1.5 0-2.78 0.71-3.16 1.75-0.34 0.96-0.17 2.42 0.39 3.25zm-18.96 18.01c1.51 1.1 4.33 2.26 6.25 2.57 1.92 0.31 5.3 0.1 7.5-0.47 2.2-0.57 4.86-1.62 5.9-2.33 1.23-0.83 1.67-1.9 1.25-3.03-0.36-0.96-1.55-1.75-2.65-1.75-1.1 0-2.22 0.45-2.5 1-0.28 0.55-3.27 1-6.65 1-3.39 0-6.31-0.45-6.5-1-0.19-0.55-1.21-1-2.27-1-1.05 0-2.17 0.67-2.5 1.5-0.36 0.93 0.47 2.26 2.17 3.51z"/>
</svg>