<svg version="1.2" xmlns="http://www.w3.org/2000/svg" viewBox="0 0 128 128" width="128" height="128">
	<title>Icons</title>
	<style>
		.s0 { opacity: 1;fill: #ffffff } 
		.s1 { opacity: .82;fill: #ffffff } 
		.s2 { opacity: .8;fill: #ffffff } 
		.s3 { opacity: .75;fill: #ffffff } 
		.s4 { opacity: .74;fill: #ffffff } 
		.s5 { opacity: .37;fill: #ffffff } 
		.s6 { opacity: .25;fill: #ffffff } 
		.s7 { opacity: .51;fill: #ffffff } 
	</style>
	<g id="Icons.18">
		<path id="Path 0" fill-rule="evenodd" class="s0" d="m66 30.35c4.77 0.21 9.32 1.11 12.5 2.46 3.04 1.3 7.06 4.3 10.25 7.66 2.89 3.04 6.26 7.67 7.49 10.28 1.81 3.83 2.25 6.5 2.25 13.75 0 7.25-0.44 9.92-2.25 13.75-1.23 2.61-4.38 7.03-6.99 9.83-2.61 2.79-7.22 6.27-10.25 7.75-4.73 2.3-6.76 2.67-14.5 2.65-7.08-0.01-10.07-0.48-14-2.22-2.93-1.29-7.3-4.59-10.58-7.98-3.38-3.51-6.33-7.75-7.5-10.78-1.32-3.44-1.92-7.5-1.92-13 0-5.51 0.6-9.56 1.93-13 1.09-2.82 4.14-7.34 7-10.36 2.79-2.94 6.42-6.06 8.07-6.91 1.65-0.86 4.8-2.16 7-2.89 2.38-0.79 7.05-1.19 11.5-0.99zm-6 15.65c3.49 0.47 5.51 0.36 6.74 0.05l2.25-0.55-4.77-8zm-11.5-1.93c1.1 0.44 2.34 0.82 2.75 0.86 0.42 0.04 1.1-1.12 1.53-2.57 0.42-1.45 0.73-2.78 0.67-2.96-0.05-0.18-1.64 0.62-3.52 1.78-3.14 1.93-3.26 2.17-1.43 2.89zm29 0.87c0.55-0.04 1.9-0.43 3-0.87 1.83-0.71 1.7-0.97-1.5-2.92-1.92-1.18-3.78-2.14-4.12-2.15-0.34 0-0.12 1.35 0.5 3.01 0.62 1.65 1.57 2.97 2.12 2.93zm-39.86 13.31l-0.64 2.75h12c0-4.65 0.25-6.56 0.54-7.25 0.33-0.76-0.55-1.52-2.25-1.93-1.53-0.37-3.51-0.97-4.4-1.33-1.12-0.45-2.06 0.21-3.11 2.18-0.82 1.56-1.78 4.07-2.14 5.58zm41.8-2.75c0.32 1.65 0.58 3.56 0.58 4.25-0.01 0.86 1.84 1.25 5.98 1.25h6c-0.99-4.26-1.89-6.74-2.64-8.25-0.74-1.51-1.92-2.69-2.61-2.61-0.68 0.08-2.74 0.64-4.58 1.25-3.01 1-3.27 1.4-2.73 4.11zm-22.95 3.25c-0.47 2.19-0.26 2.25 7.51 2.25h8l-0.5-6.5c-12.56-0.51-14.42-0.26-14.46 0.71-0.04 0.71-0.28 2.3-0.55 3.54zm-18.87 12c0.37 1.51 1.28 3.99 2.02 5.5 1.07 2.15 1.86 2.62 3.61 2.17 1.24-0.32 3.31-0.88 4.6-1.25 2-0.57 2.26-1.12 1.74-3.67-0.34-1.65-0.6-3.56-0.6-4.25 0.01-0.86-1.85-1.25-6.01-1.25h-6.02zm19.88 3.75c12.51 0.43 14.5 0.16 14.51-0.75 0.01-0.69 0.24-2.26 0.5-3.5 0.48-2.19 0.27-2.25-7.58-2.25h-8.07zm22.5-3.5c0 1.65-0.24 3.56-0.53 4.25-0.33 0.76 0.55 1.52 2.25 1.93 1.53 0.37 3.57 0.94 4.53 1.25 1.23 0.4 2.16-0.25 3.11-2.18 0.75-1.51 1.65-3.99 2-5.5l0.64-2.75h-12zm-19.98 12.5l4.76 8 4.22-8.5c-3.59-0.47-5.61-0.36-6.81-0.06zm-10.01 4.36c1.92 1.17 3.83 2.14 4.25 2.14 0.41 0 0.18-1.35-0.5-3-0.69-1.66-1.7-2.98-2.25-2.93-0.55 0.04-1.9 0.43-3 0.86-1.83 0.72-1.7 0.97 1.5 2.93zm25.23 1.86c0.15 0.11 1.84-0.74 3.77-1.9 3.19-1.92 3.32-2.17 1.5-2.89-1.1-0.43-2.35-0.82-2.77-0.85-0.43-0.04-1.22 1.16-1.77 2.67-0.54 1.52-0.87 2.85-0.73 2.97z"/>
		<path id="Path 1" class="s1" d="m39.4 40.25l-1.9 2.25c3.54-3.1 4.55-4.11 4.53-4.25-0.02-0.14-0.19-0.25-0.38-0.25-0.2 0-1.21 1.01-2.25 2.25zm-1 47.75c0.33 0.55 0.83 1 1.1 1 0.27 0 0.27-0.45 0-1-0.27-0.55-0.77-1-1.1-1-0.33 0-0.33 0.45 0 1zm50 1.25l-1.9 2.25c3.54-3.1 4.55-4.11 4.53-4.25-0.02-0.14-0.19-0.25-0.38-0.25-0.2 0-1.21 1.01-2.25 2.25z"/>
		<path id="Path 2" class="s2" d="m88.5 40c1.1 1.14 2.22 2.07 2.5 2.07 0.28 0-0.21-0.92-1.08-2.04-0.87-1.12-1.99-2.04-2.5-2.06-0.51-0.02-0.02 0.89 1.08 2.03zm-48.1 50c0.33 0.55 0.83 1 1.1 1 0.27 0 0.27-0.45 0-1-0.27-0.55-0.77-1-1.1-1-0.33 0-0.33 0.45 0 1z"/>
		<path id="Path 3" class="s3" d="m61 53.72c1.38 0.23 3.85 0.23 5.5 0 1.65-0.23 0.53-0.42-2.5-0.42-3.02 0-4.38 0.19-3 0.42zm2.5 21.99c1.1 0.23 3.13 0.23 4.5 0 1.38-0.24 0.47-0.44-2-0.44-2.48 0-3.6 0.2-2.5 0.44z"/>
		<path id="Path 4" class="s4" d="m60.25 75.72c0.41 0.43 1.05 0.44 1.42 0.03 0.36-0.41 0.03-0.76-0.75-0.78-0.78-0.01-1.08 0.32-0.67 0.75z"/>
		<path id="Path 5" class="s5" d="m46.3 43.24q-0.81 1.25 0.45 0.5c0.69-0.41 1.25-0.97 1.25-1.24 0-0.28-0.2-0.5-0.45-0.5-0.25 0-0.81 0.56-1.25 1.24zm-6 7q-0.81 1.25 0.45 0.5c0.69-0.41 1.25-0.97 1.25-1.24 0-0.28-0.2-0.5-0.45-0.5-0.25 0-0.81 0.56-1.25 1.24zm47 29q-0.81 1.25 0.45 0.5c0.69-0.41 1.25-0.96 1.25-1.24 0-0.28-0.2-0.5-0.45-0.5-0.25 0-0.81 0.56-1.25 1.24zm-6 7q-0.81 1.25 0.45 0.5c0.69-0.41 1.25-0.96 1.25-1.24 0-0.28-0.2-0.5-0.45-0.5-0.25 0-0.81 0.56-1.25 1.24z"/>
		<path id="Path 6" class="s6" d="m66.25 46.72c0.41 0.43 1.05 0.44 1.42 0.03 0.36-0.41 0.03-0.76-0.75-0.78-0.78-0.01-1.08 0.32-0.67 0.75zm-5 36c0.41 0.43 1.05 0.44 1.42 0.03 0.36-0.41 0.03-0.76-0.75-0.78-0.78-0.01-1.08 0.32-0.67 0.75z"/>
		<path id="Path 7" class="s7" d="m57.25 53.72c0.41 0.43 1.05 0.44 1.42 0.03 0.36-0.41 0.03-0.76-0.75-0.78-0.78-0.01-1.08 0.32-0.67 0.75zm13 22c0.41 0.43 1.05 0.44 1.42 0.03 0.36-0.41 0.03-0.76-0.75-0.78-0.78-0.01-1.08 0.32-0.67 0.75z"/>
	</g>
</svg>