<svg version="1.2" xmlns="http://www.w3.org/2000/svg" viewBox="0 0 128 128" width="128" height="128">
	<title>Icons</title>
	<style>
		.s0 { fill: #ffffff } 
	</style>
	<path id="Path 0" class="s0" d="m54.5 32.67c-1.65 0.87-3.85 2.31-4.89 3.21-1.04 0.89-2.72 3.42-3.73 5.62-1.01 2.2-1.85 5.69-1.86 7.75l-0.02 3.75h12c1.45-5.81 2.64-8.17 3.59-9 0.94-0.83 3.26-1.5 5.15-1.5 2.48 0 3.98 0.7 5.39 2.5 1.15 1.47 1.92 3.94 1.87 6-0.07 2.89-1.01 4.37-5.44 8.5-2.94 2.75-5.85 6.24-6.45 7.75-0.61 1.51-1.11 4.78-1.11 7.25v4.5h11c1.63-7.54 2.92-9.41 6.61-12.5 2.62-2.2 5.58-5.35 6.57-7 1.27-2.1 1.8-4.96 1.78-9.5-0.02-4.86-0.58-7.46-2.24-10.3-1.49-2.56-3.86-4.62-7.22-6.27-3.81-1.87-6.54-2.44-11.5-2.4-3.91 0.03-7.7 0.68-9.5 1.64zm3.5 57.83v6.5h13v-13h-13z"/>
	<g id="Icons.18">
	</g>
</svg>