<svg version="1.2" xmlns="http://www.w3.org/2000/svg" viewBox="0 0 128 128" width="128" height="128">
	<title>Icons</title>
	<style>
		.s0 { fill: #ffffff } 
	</style>
	<path id="Path 0" fill-rule="evenodd" class="s0" d="m94 27l7 7 0.01 17.75c0 14.17-0.3 18.2-1.5 20-0.83 1.24-2.86 2.92-4.51 3.75-1.87 0.93-5.83 1.5-18 1.5v7.5c0 4.67-0.57 8.63-1.5 10.5-0.83 1.65-2.51 3.68-3.75 4.51-1.8 1.2-5.83 1.5-37.75 1.49l-7-7-0.01-17.75c0-14.21 0.3-18.2 1.51-20.01 0.83-1.24 2.86-2.92 4.51-3.75 1.85-0.92 5.84-1.49 17.99-1.49v-7.5c0-4.67 0.57-8.63 1.5-10.5 0.83-1.65 2.51-3.68 3.75-4.51 1.8-1.2 5.83-1.5 37.75-1.49zm-31.54 20.25c0.26 0.69 1.16 1.59 2 2 0.92 0.45 2.14 0.15 3.04-0.75 0.9-0.9 1.2-2.12 0.75-3.04-0.41-0.84-1.32-1.73-2.01-1.96-0.69-0.23-1.92 0.24-2.75 1.04-0.82 0.8-1.28 2.02-1.03 2.71zm21.34-0.55c0.11 0.72 1.1 1.75 2.2 2.3 1.51 0.76 2.31 0.61 3.25-0.59 0.87-1.1 0.94-2.06 0.25-3.14-0.55-0.86-1.47-1.73-2.05-1.93-0.58-0.2-1.68 0.18-2.45 0.85-0.77 0.66-1.31 1.8-1.2 2.51zm-6.79 17.05c-0.01 1.94 0.37 2.16 2.74 1.63 1.51-0.34 3.76-1.24 5-2 1.24-0.76 2.14-2.13 2-3.05-0.14-0.91-0.7-1.77-1.25-1.9-0.55-0.12-2.69 0.51-4.74 1.42-2.73 1.2-3.75 2.26-3.75 3.9zm-38.62 8.5c0.34 0.96 1.51 1.75 2.61 1.75 1.1 0 2.22-0.67 2.5-1.5 0.27-0.83-0.06-2.2-0.75-3.04-0.69-0.85-1.82-1.53-2.52-1.5-0.71 0.02-1.54 0.6-1.86 1.29-0.32 0.69-0.31 2.04 0.02 3zm21.86 0.29c0.69 0.85 1.7 1.55 2.25 1.55 0.55 0 1.56-0.7 2.25-1.55 1-1.23 1-1.85 0-3.08-0.69-0.85-1.76-1.53-2.39-1.5-0.62 0.02-1.64 0.71-2.25 1.54-0.82 1.11-0.79 1.9 0.14 3.04zm-17.32 14.96c1.41 1.31 3.94 2.13 7.36 2.38q5.21 0.37 8.46-1.25c2.04-1.03 3.25-2.37 3.25-3.63 0-1.26-0.67-2-1.8-2-0.99 0-2.23 0.48-2.75 1.06-0.54 0.6-3.13 0.87-5.95 0.63-2.75-0.24-5.94-0.75-7.08-1.15-1.34-0.46-2.37-0.23-2.87 0.62-0.49 0.84 0.03 2.09 1.38 3.34z"/>
</svg>